<?xml version="1.0" encoding="utf-8"?>
<!-- Generator: Adobe Illustrator 27.1.1, SVG Export Plug-In . SVG Version: 6.00 Build 0)  -->
<svg version="1.1" id="Layer_1" xmlns="http://www.w3.org/2000/svg" xmlns:xlink="http://www.w3.org/1999/xlink" x="0px" y="0px"
	 viewBox="0 0 160 160" style="enable-background:new 0 0 160 160;" xml:space="preserve">
<style type="text/css">
    /* Default: Light mode browser tabs */
    .st0 { fill: #0F131A; }
    .st1 { fill: none; stroke: #0F131A; stroke-width: 2; stroke-linecap: round; stroke-miterlimit: 10; }
    .st2 { fill: none; stroke: #0F131A; stroke-width: 1.5; stroke-miterlimit: 10; }
    .st3 { fill: none; stroke: #0F131A; stroke-width: 2; stroke-miterlimit: 10; }

    /* Automatic Switch: Dark mode browser tabs */
    @media (prefers-color-scheme: dark) {
        .st0 { fill: rgb(255, 255, 255); }
        .st1, .st2, .st3 { stroke: rgb(255, 255, 255); }
    }
</style>
<g>
	<path class="st0" d="M0.9,76.2C38.1,38,100.6,33.8,143,65.8c5.9,4.4,11.4,9.4,16.2,14.9c0.4,0.5,0.4,1.2-0.1,1.7
		c-0.5,0.4-1.2,0.4-1.6-0.1c-5.1-5-10.6-9.6-16.6-13.6c-35.2-24.5-84.4-25.9-121-3.5c-6.2,3.6-11.9,7.9-17.3,12.6
		C1.5,78.9-0.2,77.3,0.9,76.2L0.9,76.2L0.9,76.2z"/>
	<path class="st0" d="M116.8,64.8c4,3.5,4.1,9.3,4.3,14.2c0.5,15-8.7,30.8-23.6,34.9c-0.5,0.1-0.9-0.1-1.1-0.6
		c-0.1-0.4,0.1-0.8,0.5-1c4.2-2,7.9-4.8,10.8-8.3c5.9-6.9,8.7-16,8.4-24.9c-0.1-2.2-0.3-4.5-0.8-6.7
		C115.1,71.2,113.9,63.2,116.8,64.8L116.8,64.8L116.8,64.8z"/>
	<path class="st0" d="M49.5,101.6c-4.9-2.3-6.5-7.8-8.1-12.5c-4.6-14.2-0.2-32,12.9-40.1c0.4-0.3,1-0.1,1.2,0.3
		c0.2,0.4,0.2,0.8-0.2,1.1c-3.5,3.1-6.2,6.8-8.1,11c-3.8,8.2-3.9,17.8-1.2,26.3c0.7,2.1,1.6,4.2,2.6,6.2
		C49.4,95,52.8,102.3,49.5,101.6L49.5,101.6L49.5,101.6z"/>
</g>
<g>
	<circle class="st0" cx="80" cy="77.7" r="2"/>
	<g>
		<line class="st1" x1="60.4" y1="82.6" x2="72.5" y2="121.8"/>
		<path class="st1" d="M72.7,122.1c5.1-1.1,10.1-1.2,14.9,0.1"/>
		<path class="st1" d="M70.1,126.6c7-1.6,13.8-1.6,20.4,0.1"/>
		<line class="st1" x1="99.6" y1="82.8" x2="87.7" y2="121.8"/>
		<path class="st1" d="M81.2,34.4c0.4,22.3,7.9,36.9,18.3,48.4"/>
		<path class="st1" d="M79.1,34.4c-0.6,22.3-8.2,36.9-18.7,48.2"/>
		<line class="st2" x1="79.9" y1="78.8" x2="81" y2="34.5"/>
		<line class="st2" x1="80.1" y1="79.3" x2="79.2" y2="34.9"/>
		<circle class="st3" cx="79.1" cy="33.7" r="0.4"/>
		<circle class="st3" cx="81.2" cy="33.8" r="0.4"/>
	</g>
</g>
</svg>
