<svg width="20" height="14" viewBox="0 0 20 14" fill="none" xmlns="http://www.w3.org/2000/svg">
<path d="M18.0471 0.0176471L9.99608 0.0352941L1.9451 0H1.94118C0.858823 0 0 0.914118 0 2.05765V11.6365C0 12.78 0.858823 13.6941 1.94118 13.6941H18.0588C19.1412 13.6941 20 12.78 20 11.6365V2.05765C20 0.914118 19.149 0.0176471 18.0471 0.0176471ZM17.4157 1.42941L10.2235 7.34824L10.1961 7.36941L10.1725 7.39412C10.0863 7.47882 9.98431 7.48941 9.92941 7.48941C9.87451 7.48941 9.77255 7.47529 9.6902 7.38706L9.66667 7.36235L2.79216 1.40118L9.99608 1.44353L17.4157 1.42941ZM18.0588 12.2824H1.94118C1.80392 12.2824 1.56863 12.0494 1.56863 11.6365V2.28353L8.53333 8.34C8.88627 8.69294 9.38431 8.89765 9.91373 8.9047H9.93725C10.4588 8.9047 10.9451 8.71059 11.302 8.37176L18.4392 2.49176V11.6365C18.4314 12.0494 18.1961 12.2824 18.0588 12.2824Z" fill="#2C344B"/>
</svg>
